<svg xmlns="http://www.w3.org/2000/svg" viewBox="0 0 512 512">
  <defs>
    <linearGradient id="g" x1="0%" y1="0%" x2="100%" y2="100%">
      <stop offset="0%" stop-color="#0a84ff"/>
      <stop offset="100%" stop-color="#bf5af2"/>
    </linearGradient>
  </defs>
  <rect width="512" height="512" rx="128" fill="#1c1c1e"/>
  <path d="M160 96h-32a32 32 0 0 0-32 32v32m0 192v32a32 32 0 0 0 32 32h32m192 0h32a32 32 0 0 0 32-32v-32m0-192v-32a32 32 0 0 0-32-32h-32" 
        fill="none" stroke="url(#g)" stroke-width="32" stroke-linecap="round" stroke-linejoin="round"/>
  <path d="M256 120c0 0 30 96 136 136 0 0-106 40-136 136 0 0-30-96-136-136 0 0 106-40 136-136z" fill="url(#g)"/>
</svg>